<?xml version="1.0" standalone="no"?>
<!DOCTYPE svg PUBLIC "-//W3C//DTD SVG 20010904//EN"
 "http://www.w3.org/TR/2001/REC-SVG-20010904/DTD/svg10.dtd">
<svg version="1.0" xmlns="http://www.w3.org/2000/svg"
 width="330.000000pt" height="226.000000pt" viewBox="0 0 330.000000 226.000000"
 preserveAspectRatio="xMidYMid meet">

<g transform="translate(0.000000,226.000000) scale(0.100000,-0.100000)"
fill="#000000" stroke="none">
<path d="M1295 2003 c-122 -71 -232 -149 -290 -208 -97 -97 -288 -372 -382
-550 -29 -55 -53 -93 -53 -85 -1 8 -7 -1 -14 -20 -6 -19 -17 -34 -24 -33 -7 2
-12 -4 -12 -13 0 -9 -28 -46 -61 -82 -42 -45 -74 -93 -99 -147 -46 -101 -52
-118 -40 -110 13 8 13 -1 -1 -26 -5 -11 -14 -17 -19 -14 -6 4 -7 -1 -3 -11 4
-11 2 -15 -4 -11 -6 4 -13 0 -17 -8 -3 -10 3 -17 19 -21 30 -8 30 -8 3 -47
l-23 -32 31 22 c17 12 37 29 44 37 7 9 16 13 21 10 5 -3 26 0 47 7 31 9 44 9
63 -2 13 -7 29 -14 35 -15 5 -1 30 -11 55 -22 36 -17 46 -18 57 -8 11 11 11
19 3 34 -17 32 -14 33 24 11 44 -26 59 -17 50 28 -6 32 -4 35 12 28 81 -34
151 -30 283 14 56 19 87 25 91 19 9 -15 130 12 136 30 5 12 -36 352 -43 360
-1 2 -33 -15 -70 -37 -130 -79 -210 -96 -269 -57 -17 11 -23 27 -28 73 -3 32
-8 66 -12 75 -5 13 4 20 42 34 44 16 57 28 128 125 44 60 81 112 83 117 2 8
-24 24 -62 36 -10 4 -17 8 -15 11 5 5 56 13 87 14 l24 1 -27 31 c-14 17 -25
33 -23 34 2 2 21 5 43 9 22 3 41 5 42 6 5 1 62 109 74 140 16 42 96 182 139
245 17 25 27 45 23 44 -4 0 -35 -16 -68 -36z m-81 -115 c-10 -13 -31 -35 -46
-49 -35 -34 -35 -43 -2 -35 22 6 24 4 15 -12 -13 -25 -28 -37 -92 -73 -30 -17
-45 -28 -34 -25 82 21 83 20 65 -13 -5 -10 -37 -29 -70 -41 -42 -16 -59 -27
-56 -36 4 -8 8 -20 11 -27 4 -8 -12 -21 -42 -36 -47 -23 -47 -23 -27 -40 11
-9 30 -23 43 -31 l23 -15 -22 -27 c-16 -21 -33 -29 -71 -34 -27 -4 -49 -10
-49 -14 0 -4 19 -13 43 -20 l42 -13 -30 -13 c-23 -10 -25 -13 -10 -14 38 -1
-45 -66 -94 -74 -39 -6 -43 -9 -37 -29 3 -12 9 -40 12 -62 l6 -40 -22 25 -21
25 3 -39 c3 -37 1 -40 -42 -63 -50 -27 -60 -38 -60 -72 0 -18 -4 -22 -18 -16
-13 5 -34 -12 -85 -67 l-68 -73 29 60 c170 354 294 570 407 705 36 43 120 130
186 194 114 109 156 144 113 94z m-256 -205 c-172 -207 -252 -334 -374 -591
-37 -78 -69 -140 -72 -138 -2 3 -1 29 3 58 6 39 10 48 15 33 6 -16 9 -11 15
23 4 24 12 41 18 39 6 -2 34 45 63 104 82 168 204 351 332 497 77 89 78 69 0
-25z m217 -691 l7 -82 -36 -15 c-30 -13 -36 -20 -37 -48 -1 -17 -7 4 -15 48
-26 158 -27 141 19 169 23 13 45 21 48 18 4 -4 10 -44 14 -90z m-348 11 l72
-38 78 27 c43 14 79 26 79 25 1 -1 5 -32 9 -69 6 -58 5 -68 -8 -68 -9 0 -40
-19 -69 -43 -87 -71 -220 -90 -284 -42 -38 29 -49 30 -100 9 -80 -32 -94 -39
-94 -46 0 -11 -99 -88 -113 -88 -6 0 1 13 16 28 15 16 27 39 27 54 0 31 39 67
112 104 27 14 51 31 54 39 3 7 17 16 32 20 38 9 62 34 62 63 0 26 25 62 44 62
6 0 43 -17 83 -37z m-332 -15 c-4 -13 -9 -32 -12 -43 -3 -11 -16 -33 -28 -50
-13 -16 -37 -59 -55 -95 -38 -76 -68 -120 -81 -120 -5 0 -3 13 6 30 8 16 15
40 15 54 0 14 18 60 40 103 53 101 134 187 115 121z m-14 -105 c-12 -20 -14
-14 -5 12 4 9 9 14 11 11 3 -2 0 -13 -6 -23z m692 -37 c4 -10 0 -12 -14 -9
-10 3 -16 9 -13 14 8 13 21 11 27 -5z m-745 -108 c-3 -7 -20 -22 -39 -32 l-34
-20 20 25 c32 38 62 54 53 27z m236 -44 c9 -3 16 -12 16 -20 0 -12 -4 -12 -20
-2 -30 19 -27 34 4 22z m-60 -33 c11 -12 14 -21 7 -25 -13 -8 -71 20 -71 34 0
17 46 11 64 -9z m-254 -5 c0 -2 -7 -9 -15 -16 -13 -11 -14 -10 -9 4 5 14 24
23 24 12z"/>
<path d="M1700 1943 c-25 -9 -52 -36 -82 -82 -15 -25 -28 -48 -28 -51 0 -4 24
17 53 47 55 54 90 66 115 41 15 -15 15 -57 -1 -84 -52 -89 -57 -105 -57 -167
0 -84 23 -149 66 -187 19 -16 39 -30 44 -30 21 0 8 40 -24 72 -37 37 -61 118
-50 166 13 52 44 102 64 102 18 0 20 -9 22 -107 3 -90 6 -108 19 -111 11 -2
19 6 23 22 7 29 61 86 81 86 12 0 12 -6 -1 -35 -31 -75 -9 -178 41 -191 34 -8
57 2 53 23 -2 13 -11 17 -31 15 -22 -3 -29 2 -38 24 -14 38 -3 96 27 140 14
20 23 44 22 53 -5 24 -93 19 -130 -9 l-28 -21 0 56 0 55 105 0 105 0 0 -159
c0 -133 3 -161 16 -172 14 -11 19 -9 35 11 23 31 25 65 4 56 -13 -5 -15 14
-15 129 l0 135 105 0 105 0 0 -55 c0 -30 -2 -55 -4 -55 -2 0 -17 7 -32 15 -58
30 -106 10 -125 -54 -21 -69 30 -191 79 -191 33 0 45 16 37 49 -6 29 -8 30
-19 15 -20 -27 -42 -11 -56 42 -11 40 -11 51 1 73 19 34 57 38 92 11 25 -20
27 -27 27 -100 0 -91 12 -107 47 -64 25 32 25 51 -1 46 -14 -3 -16 12 -16 133
l0 135 100 0 c60 0 100 -4 100 -10 0 -5 -4 -10 -10 -10 -16 0 -90 -71 -106
-101 -30 -59 -12 -122 51 -177 42 -38 74 -47 112 -35 30 10 39 40 11 35 -16
-3 -18 8 -18 118 0 71 4 120 10 120 19 0 43 -51 43 -91 0 -27 -7 -47 -22 -63
-11 -12 -21 -28 -21 -34 0 -22 28 -12 54 19 48 57 26 171 -39 201 -42 19 -28
28 40 28 58 0 65 2 65 20 0 19 -7 20 -200 20 l-200 0 0 28 c0 35 -9 48 -43 61
-85 32 -238 -16 -224 -70 5 -18 -2 -19 -121 -19 l-127 0 0 46 c-1 38 -6 51
-28 70 -28 24 -47 28 -77 17z m585 -84 c4 -5 -1 -19 -11 -30 -14 -16 -31 -19
-96 -19 -62 0 -80 3 -85 15 -9 25 3 30 85 36 42 3 82 6 89 7 6 1 15 -3 18 -9z
m263 -331 l-3 -63 -42 41 c-37 36 -43 48 -43 83 0 35 6 47 43 84 l42 42 3 -62
c2 -35 2 -91 0 -125z"/>
<path d="M1430 1110 c0 -18 7 -20 85 -20 47 0 85 -3 84 -7 0 -5 -21 -21 -47
-38 -65 -42 -98 -106 -82 -164 26 -99 183 -176 198 -97 2 9 -3 16 -12 16 -14
0 -16 20 -16 145 l0 145 35 0 35 0 0 -159 c0 -134 3 -161 16 -172 14 -12 19
-10 39 15 24 30 24 59 -1 49 -12 -4 -14 18 -14 131 l0 136 80 0 c74 0 80 -2
80 -21 0 -19 -1 -19 -22 -5 -29 21 -51 20 -71 -2 -22 -24 -22 -71 -1 -101 22
-31 36 -10 27 42 -6 42 10 50 46 20 16 -14 21 -31 23 -83 2 -51 7 -65 19 -68
11 -2 19 6 23 22 7 29 61 86 81 86 12 0 12 -6 -1 -35 -31 -75 -9 -178 41 -191
34 -8 57 2 53 23 -2 13 -11 17 -31 15 -22 -3 -29 2 -38 24 -14 38 -3 96 27
140 36 53 29 69 -29 67 -27 -1 -59 -9 -72 -17 l-25 -16 0 50 0 50 170 0 c158
0 204 -8 149 -25 -34 -11 -84 -62 -103 -104 -26 -57 -15 -105 38 -157 53 -53
107 -67 139 -36 19 19 19 22 4 28 -15 5 -17 24 -17 150 l0 144 90 0 c50 0 90
-3 89 -7 0 -5 -21 -21 -47 -38 -65 -42 -98 -106 -82 -164 26 -99 183 -176 198
-97 2 9 -3 16 -12 16 -14 0 -16 20 -16 145 l0 145 35 0 35 0 0 -159 c0 -134 3
-161 16 -172 14 -12 19 -10 39 15 24 30 24 59 -1 49 -12 -4 -14 18 -14 131 l0
136 105 0 105 0 0 -55 c0 -30 -2 -55 -4 -55 -2 0 -17 7 -32 15 -58 30 -106 10
-125 -54 -21 -69 30 -191 79 -191 33 0 45 16 37 49 -6 29 -8 30 -19 15 -20
-27 -42 -11 -56 42 -11 40 -11 51 1 73 19 34 57 38 92 11 25 -20 27 -27 27
-100 0 -91 12 -107 47 -64 25 32 25 51 -1 46 -14 -3 -16 12 -16 133 l0 135 30
0 c23 0 30 4 30 20 0 20 -7 20 -770 20 -763 0 -770 0 -770 -20z m170 -206 l0
-115 -28 16 c-34 20 -72 74 -72 101 0 32 65 112 93 114 4 0 7 -52 7 -116z
m700 1 c0 -70 -4 -115 -10 -115 -5 0 -28 18 -50 40 -31 31 -40 48 -40 75 0 28
9 44 40 75 22 22 45 40 50 40 6 0 10 -45 10 -115z m220 -1 l0 -115 -28 16
c-34 20 -72 74 -72 101 0 32 65 112 93 114 4 0 7 -52 7 -116z"/>
<path d="M2194 765 c-5 -11 3 -27 24 -47 28 -29 31 -29 39 -12 8 15 4 25 -23
47 -30 25 -35 27 -40 12z"/>
<path d="M1530 368 c-1 -2 -2 -42 -3 -91 -2 -74 0 -87 14 -87 12 0 15 7 12 28
-4 26 -4 26 11 8 9 -11 16 -23 16 -28 0 -4 9 -8 20 -8 19 0 19 1 -2 36 l-22
37 23 18 c17 14 19 19 7 19 -8 0 -20 -9 -26 -20 -19 -35 -30 -22 -30 35 0 30
-4 55 -10 55 -5 0 -10 -1 -10 -2z"/>
<path d="M2040 335 c0 -27 -4 -35 -18 -35 -26 0 -42 -20 -42 -51 0 -49 9 -59
54 -59 l41 0 -3 90 c-3 70 -7 90 -18 90 -9 0 -14 -11 -14 -35z m0 -90 c0 -49
-15 -59 -30 -21 -11 30 -2 66 16 66 10 0 14 -13 14 -45z"/>
<path d="M2282 283 l3 -88 31 -3 c40 -4 56 16 52 65 -3 33 -7 38 -30 41 -25 3
-28 8 -28 38 0 24 -5 34 -15 34 -13 0 -15 -14 -13 -87z m61 -15 c13 -20 0 -68
-18 -68 -11 0 -15 12 -15 46 0 46 13 55 33 22z"/>
<path d="M1035 275 l0 -85 33 0 c47 0 70 15 81 55 19 69 -10 115 -73 115 l-41
0 0 -85z m83 45 c22 -43 0 -120 -34 -120 -11 0 -14 18 -14 76 0 66 2 75 17 72
10 -2 23 -14 31 -28z"/>
<path d="M1280 345 c0 -8 7 -15 15 -15 8 0 15 7 15 15 0 8 -7 15 -15 15 -8 0
-15 -7 -15 -15z"/>
<path d="M1467 354 c-8 -8 1 -24 14 -24 5 0 9 7 9 15 0 15 -12 20 -23 9z"/>
<path d="M1638 352 c10 -7 13 -30 10 -86 l-3 -76 31 0 c46 0 68 21 60 56 -4
16 -8 47 -9 69 l-2 40 -50 3 c-31 1 -45 -1 -37 -6z m67 -22 c7 -22 -11 -53
-26 -44 -5 3 -9 15 -9 28 0 39 24 50 35 16z m0 -95 c0 -20 -6 -31 -17 -33 -15
-3 -18 4 -18 33 0 29 3 36 18 33 11 -2 17 -13 17 -33z"/>
<path d="M567 248 c21 -73 26 -76 39 -24 5 21 4 27 -5 22 -10 -6 -17 19 -12
47 0 4 -8 7 -18 7 -19 0 -19 -2 -4 -52z"/>
<path d="M615 289 c-8 -21 14 -105 24 -93 14 15 40 104 32 104 -5 0 -12 -15
-16 -32 l-7 -33 -13 35 c-10 27 -14 31 -20 19z"/>
<path d="M698 288 c7 -7 12 -19 12 -27 1 -9 7 -29 14 -46 l14 -30 12 30 c12
29 13 29 19 7 3 -13 10 -22 16 -20 11 4 45 98 35 98 -4 0 -12 -15 -17 -32
l-11 -33 -7 33 c-4 17 -11 32 -15 32 -4 0 -11 -15 -15 -32 l-7 -33 -11 33 c-7
22 -16 32 -30 32 -16 0 -18 -3 -9 -12z"/>
<path d="M855 263 c7 -21 16 -47 20 -58 6 -18 7 -18 16 -3 14 24 -11 98 -33
98 -15 0 -15 -4 -3 -37z"/>
<path d="M906 273 c-4 -14 -2 -31 3 -36 6 -6 11 -19 11 -29 0 -10 4 -18 9 -18
15 0 24 41 12 53 -6 6 -11 19 -11 28 0 29 -17 31 -24 2z"/>
<path d="M953 273 c-1 -16 1 -21 4 -13 3 8 10 21 16 28 6 8 5 12 -5 12 -8 0
-14 -11 -15 -27z"/>
<path d="M1198 293 c13 -3 22 -12 22 -23 0 -12 -8 -20 -22 -22 -17 -2 -23 -10
-23 -28 0 -22 4 -25 40 -27 l40 -2 -5 52 c-5 51 -5 52 -40 54 -19 0 -25 -1
-12 -4z m22 -73 c0 -11 -4 -20 -10 -20 -5 0 -10 9 -10 20 0 11 5 20 10 20 6 0
10 -9 10 -20z"/>
<path d="M1275 245 c0 -48 2 -55 20 -55 18 0 20 5 17 55 -3 43 -7 55 -20 55
-14 0 -17 -10 -17 -55z"/>
<path d="M1339 286 c8 -9 12 -32 9 -56 -3 -31 0 -40 12 -40 12 0 15 9 12 41
-5 46 12 74 29 49 5 -8 8 -32 7 -52 -3 -29 0 -38 12 -38 13 0 15 9 10 53 l-5
52 -49 3 c-44 3 -48 1 -37 -12z"/>
<path d="M1460 285 c7 -8 10 -32 8 -55 -3 -31 0 -40 12 -40 12 0 14 11 12 55
-3 47 -7 55 -24 55 -17 0 -18 -3 -8 -15z"/>
<path d="M1788 290 c29 -12 28 -28 -3 -40 -17 -7 -25 -17 -25 -34 0 -22 4 -25
38 -24 l37 0 -3 54 c-4 53 -4 54 -35 53 -29 0 -30 -1 -9 -9z m20 -67 c-4 -22
-22 -20 -26 1 -2 10 3 16 13 16 10 0 15 -7 13 -17z"/>
<path d="M1865 245 c0 -42 3 -55 15 -55 11 0 15 12 15 47 0 36 4 48 15 48 11
0 15 -12 15 -48 0 -35 4 -47 15 -47 12 0 14 11 12 55 l-4 55 -41 0 -42 0 0
-55z"/>
<path d="M2115 293 c38 -10 42 -43 5 -43 -19 0 -36 -32 -25 -49 3 -5 22 -10
43 -9 l37 0 -5 52 c-5 50 -6 51 -40 53 -19 1 -26 -1 -15 -4z m33 -70 c-4 -22
-22 -20 -26 1 -2 10 3 16 13 16 10 0 15 -7 13 -17z"/>
<path d="M2200 285 c7 -8 10 -32 8 -55 -3 -31 0 -40 12 -40 12 0 15 8 12 35
-2 19 -1 43 2 52 6 15 8 15 16 3 8 -13 10 -12 10 3 0 13 -8 17 -36 17 -31 0
-35 -2 -24 -15z"/>
<path d="M2418 290 c12 -5 22 -16 22 -24 0 -8 -10 -16 -22 -18 -17 -2 -23 -10
-23 -28 0 -22 5 -25 45 -28 36 -3 43 -1 33 9 -7 7 -13 32 -13 56 0 42 -1 43
-32 42 -30 0 -31 -1 -10 -9z m22 -70 c0 -11 -4 -20 -9 -20 -14 0 -23 18 -16
30 10 17 25 11 25 -10z"/>
<path d="M2495 245 c0 -48 2 -55 20 -55 18 0 20 5 16 51 -2 40 0 50 10 47 9
-3 14 -21 14 -51 0 -43 2 -47 25 -47 19 0 21 3 12 12 -7 7 -12 31 -12 55 l0
43 -42 0 -43 0 0 -55z"/>
<path d="M2682 288 c-7 -7 -12 -26 -12 -43 0 -38 16 -55 50 -54 24 0 24 1 3 9
-25 10 -37 41 -28 70 7 22 31 27 38 8 3 -8 6 -6 6 5 1 20 -38 24 -57 5z"/>
<path d="M2758 275 c-18 -39 0 -79 37 -83 34 -4 55 18 55 58 0 34 -17 50 -52
50 -21 0 -32 -7 -40 -25z m60 -27 c-4 -51 -31 -61 -36 -15 -4 37 4 57 23 57
13 0 15 -9 13 -42z"/>
<path d="M2870 285 c7 -8 10 -32 8 -55 -3 -31 0 -40 12 -40 11 0 15 11 15 47
0 28 5 48 13 50 8 3 12 -10 12 -46 0 -42 3 -51 18 -51 14 0 16 8 13 51 -2 40
0 50 10 47 9 -3 14 -21 14 -51 0 -41 3 -47 21 -47 17 0 20 5 17 33 -10 79 -5
75 -89 76 -66 1 -75 -1 -64 -14z"/>
<path d="M980 205 c0 -8 5 -15 10 -15 6 0 10 7 10 15 0 8 -4 15 -10 15 -5 0
-10 -7 -10 -15z"/>
<path d="M2620 205 c0 -9 5 -15 11 -13 6 2 11 8 11 13 0 5 -5 11 -11 13 -6 2
-11 -4 -11 -13z"/>
</g>
</svg>
